<?xml version="1.0" encoding="UTF-8" standalone="no"?>
<svg
   version="1.1"
   width="96"
   height="48"
   fill="none"
   stroke-width="3"
   id="svg50"
   sodipodi:docname="maximize.svg"
   inkscape:version="1.1.1 (3bf5ae0d25, 2021-09-20)"
   xmlns:inkscape="http://www.inkscape.org/namespaces/inkscape"
   xmlns:sodipodi="http://sodipodi.sourceforge.net/DTD/sodipodi-0.dtd"
   xmlns="http://www.w3.org/2000/svg"
   xmlns:svg="http://www.w3.org/2000/svg">
  <defs
     id="defs54" />
  <sodipodi:namedview
     id="namedview52"
     pagecolor="#ffffff"
     bordercolor="#666666"
     borderopacity="1.0"
     inkscape:pageshadow="2"
     inkscape:pageopacity="0.0"
     inkscape:pagecheckerboard="0"
     showgrid="false"
     inkscape:zoom="11.041667"
     inkscape:cx="9.6452827"
     inkscape:cy="22.913207"
     inkscape:window-width="1366"
     inkscape:window-height="745"
     inkscape:window-x="0"
     inkscape:window-y="23"
     inkscape:window-maximized="0"
     inkscape:current-layer="active-center" />
  <!--standard-->
  <g
     id="g12">
    <g
       id="active-center"
       stroke="#bbbbbb">
      <circle
         cx="12"
         cy="12"
         r="12"
         opacity="0"
         id="circle2" />
      <g
         id="g1402"
         transform="matrix(1.1732574,0,0,-1.1732574,-1.6774813,25.13864)">
        <polyline
           points="18,15 12,9 6,15"
           id="polyline1398"
           transform="rotate(134.78374,13.566998,13.011315)" />
        <polyline
           points="18,15 12,9 6,15"
           id="polyline1400"
           transform="rotate(-45.21626,7.3042607,15.783392)" />
      </g>
    </g>
    <g
       id="inactive-center"
       transform="translate(0,24)"
       stroke="#888888">
      <circle
         cx="12"
         cy="12"
         r="12"
         opacity="0"
         id="circle7" />
      <g
         id="g1313"
         transform="matrix(1.1732574,0,0,-1.1732574,-1.6774813,25.13864)">
        <polyline
           points="18,15 12,9 6,15"
           id="polyline1309"
           transform="rotate(134.78374,13.566998,13.011315)" />
        <polyline
           points="18,15 12,9 6,15"
           id="polyline1311"
           transform="rotate(-45.21626,7.3042607,15.783392)" />
      </g>
    </g>
  </g>
  <!--hover-->
  <g
     id="g24">
    <g
       id="hover-center"
       transform="translate(24)"
       stroke="#000000">
      <circle
         cx="12"
         cy="12"
         r="12"
         fill="#bbbbbb"
         stroke="none"
         id="circle14" />
      <g
         id="g1224"
         transform="matrix(1.1732574,0,0,-1.1732574,-1.6774813,25.13864)">
        <polyline
           points="18,15 12,9 6,15"
           id="polyline1220"
           transform="rotate(134.78374,13.566998,13.011315)" />
        <polyline
           points="18,15 12,9 6,15"
           id="polyline1222"
           transform="rotate(-45.21626,7.3042607,15.783392)" />
      </g>
    </g>
    <g
       id="hover-inactive-center"
       transform="translate(24,24)"
       stroke="#000000">
      <circle
         cx="12"
         cy="12"
         r="12"
         fill="#666666"
         stroke="none"
         id="circle19" />
      <g
         id="g1135"
         transform="matrix(1.1732574,0,0,-1.1732574,-1.6774813,25.13864)">
        <polyline
           points="18,15 12,9 6,15"
           id="polyline1131"
           transform="rotate(134.78374,13.566998,13.011315)" />
        <polyline
           points="18,15 12,9 6,15"
           id="polyline1133"
           transform="rotate(-45.21626,7.3042607,15.783392)" />
      </g>
    </g>
  </g>
  <!--pressed-->
  <g
     id="g36">
    <g
       id="pressed-center"
       transform="translate(48)"
       stroke="#ffffff">
      <circle
         cx="12"
         cy="12"
         r="12"
         fill="#3daee9"
         stroke="none"
         id="circle26" />
      <g
         id="g2074"
         transform="matrix(1.1732574,0,0,-1.1732574,-1.6774813,25.13864)">
        <polyline
           points="18,15 12,9 6,15"
           id="polyline2070"
           transform="rotate(134.78374,13.566998,13.011315)" />
        <polyline
           points="18,15 12,9 6,15"
           id="polyline2072"
           transform="rotate(-45.21626,7.3042607,15.783392)" />
      </g>
    </g>
    <g
       id="pressed-inactive-center"
       transform="translate(48,24)"
       stroke="#bbbbbb">
      <circle
         cx="12"
         cy="12"
         r="12"
         fill="#1e57a8"
         stroke="none"
         id="circle31" />
      <g
         id="g868"
         transform="matrix(1.1732574,0,0,-1.1732574,-1.6774813,25.13864)">
        <polyline
           points="18,15 12,9 6,15"
           id="polyline864"
           transform="rotate(134.78374,13.566998,13.011315)" />
        <polyline
           points="18,15 12,9 6,15"
           id="polyline866"
           transform="rotate(-45.21626,7.3042607,15.783392)" />
      </g>
    </g>
  </g>
  <!--disabled-->
  <g
     id="g48">
    <g
       id="deactivated-center"
       transform="translate(72)"
       stroke="#666666">
      <circle
         cx="12"
         cy="12"
         r="12"
         opacity="0"
         id="circle38" />
      <g
         id="g957"
         transform="matrix(1.1732574,0,0,-1.1732574,-1.6774813,25.13864)">
        <polyline
           points="18,15 12,9 6,15"
           id="polyline953"
           transform="rotate(134.78374,13.566998,13.011315)" />
        <polyline
           points="18,15 12,9 6,15"
           id="polyline955"
           transform="rotate(-45.21626,7.3042607,15.783392)" />
      </g>
    </g>
    <g
       id="deactivated-inactive-center"
       transform="translate(72,24)"
       stroke="#666666">
      <circle
         cx="12"
         cy="12"
         r="12"
         opacity="0"
         id="circle43" />
      <g
         id="g1046"
         transform="matrix(1.1732574,0,0,-1.1732574,-1.6774813,25.13864)">
        <polyline
           points="18,15 12,9 6,15"
           id="polyline1042"
           transform="rotate(134.78374,13.566998,13.011315)" />
        <polyline
           points="18,15 12,9 6,15"
           id="polyline1044"
           transform="rotate(-45.21626,7.3042607,15.783392)" />
      </g>
    </g>
  </g>
</svg>
